<?xml version="1.0" encoding="utf-8"?>
<svg xmlns="http://www.w3.org/2000/svg" viewBox="0 0 48 48" width="144" height="144">
  <path d="M35 2C28.925 2 24 6.925 24 13C24 19.075 28.925 24 35 24C41.075 24 46 19.075 46 13C46 6.925 41.075 2 35 2 z M 35 5C35.552 5 36 5.448 36 6L36 12L42 12C42.552 12 43 12.448 43 13C43 13.552 42.552 14 42 14L36 14L36 20C36 20.552 35.552 21 35 21C34.448 21 34 20.552 34 20L34 14L28 14C27.448 14 27 13.552 27 13C27 12.448 27.448 12 28 12L34 12L34 6C34 5.448 34.448 5 35 5 z M 12.5 6C8.92 6 6 8.92 6 12.5L6 35.5C6 39.08 8.92 42 12.5 42L35.5 42C39.08 42 42 39.08 42 35.5L42 26L40.5 26L39 26L29.919922 26 A 1.50015 1.50015 0 0 0 28.419922 27.5C28.419922 29.10675 27.841159 30.13956 27.007812 30.875C26.174467 31.61044 25.02588 32 24 32C22.97412 32 21.825533 31.61044 20.992188 30.875C20.158842 30.13956 19.580078 29.10675 19.580078 27.5 A 1.50015 1.50015 0 0 0 18.080078 26L9 26L9 12.5C9 10.57 10.57 9 12.5 9L22.630859 9C22.970859 7.93 23.450781 6.93 24.050781 6L12.5 6 z M 9 29L16.894531 29C17.225629 30.675386 17.90699 32.153508 19.007812 33.125C20.440717 34.38956 22.25288 35 24 35C25.74712 35 27.559283 34.38956 28.992188 33.125C30.09301 32.153508 30.774371 30.675386 31.105469 29L39 29L39 35.5C39 37.43 37.43 39 35.5 39L12.5 39C10.57 39 9 37.43 9 35.5L9 29 z" fill="#FFFFFF" />
</svg>